<?xml version="1.0" standalone="no"?>
<!DOCTYPE svg PUBLIC "-//W3C//DTD SVG 20010904//EN"
 "http://www.w3.org/TR/2001/REC-SVG-20010904/DTD/svg10.dtd">
<svg version="1.0" xmlns="http://www.w3.org/2000/svg"
 width="300.000000pt" height="297.000000pt" viewBox="0 0 300.000000 297.000000"
 preserveAspectRatio="xMidYMid meet">
<metadata>
Created by potrace 1.10, written by Peter Selinger 2001-2011
</metadata>
<g transform="translate(0.000000,297.000000) scale(0.100000,-0.100000)"
fill="red" stroke="blue">
<path d="M1498 2963 l-1488 -3 0 -1480 c0 -980 3 -1480 10 -1480 7 0 10 497
10 1470 l0 1470 588 0 c323 0 983 0 1467 1 l880 1 3 -1471 c1 -969 5 -1471 12
-1471 7 0 10 505 10 1485 0 817 -1 1484 -2 1483 -2 -2 -672 -4 -1490 -5z"/>
<path d="M1227 2913 c-4 -3 -7 -11 -7 -17 0 -6 5 -5 12 2 6 6 9 14 7 17 -3 3
-9 2 -12 -2z"/>
<path d="M1271 2862 c-1 -14 25 -54 70 -110 86 -105 79 -97 79 -86 0 5 -31 48
-69 94 -38 47 -71 94 -74 105 -4 18 -5 18 -6 -3z"/>
<path d="M1232 2660 c0 -14 2 -19 5 -12 2 6 2 18 0 25 -3 6 -5 1 -5 -13z"/>
<path d="M1440 2625 c0 -2 6 -10 13 -17 16 -16 217 -283 240 -318 16 -25 15
-27 -120 -215 -75 -105 -175 -244 -221 -310 -46 -66 -90 -127 -98 -135 -12
-12 -14 12 -14 167 0 109 -4 184 -10 188 -14 9 -201 -13 -300 -35 -265 -59
-454 -186 -549 -368 -40 -78 -72 -176 -70 -217 1 -11 7 9 15 45 8 36 28 93 44
127 33 71 89 157 97 149 3 -3 0 -14 -8 -23 -13 -16 -12 -17 4 -4 9 7 17 21 17
31 0 21 24 43 35 32 5 -4 5 -2 1 5 -4 7 12 26 40 47 47 36 72 46 58 24 -4 -7
-3 -8 5 -4 6 4 9 11 6 16 -3 5 4 14 15 20 13 7 20 7 20 0 0 -5 -4 -10 -10 -10
-5 0 -2 -9 7 -20 10 -11 21 -20 25 -20 5 0 36 19 69 42 34 23 85 48 113 55 57
15 192 18 200 4 3 -5 17 -8 31 -8 14 -1 50 -11 80 -24 l55 -24 -1 -60 c-1 -45
-3 -54 -9 -35 -4 14 -9 18 -9 10 -1 -13 -3 -13 -14 1 -33 44 -159 84 -237 75
-62 -7 -125 -27 -142 -44 -7 -7 -16 -12 -21 -12 -5 0 -14 -6 -22 -13 -7 -7
-26 -24 -41 -38 -49 -42 -102 -155 -112 -239 -10 -79 4 -157 34 -191 8 -8 14
-20 14 -25 0 -12 84 -94 125 -121 53 -36 126 -56 208 -58 42 0 77 2 77 5 0 4
19 12 41 19 46 14 49 16 125 85 56 51 84 94 84 130 0 26 35 91 74 140 28 36
28 36 10 63 -9 16 -31 43 -48 61 -17 18 -30 38 -29 43 2 5 0 8 -5 8 -39 -6
-46 21 -16 62 13 18 24 27 24 20 0 -7 5 -9 10 -6 6 3 10 1 10 -5 0 -6 18 -30
41 -53 23 -23 48 -52 56 -64 28 -42 51 -29 182 105 159 161 219 195 352 200
66 3 105 -1 167 -18 l82 -22 0 -35 c0 -20 4 -32 10 -28 6 4 10 -8 10 -29 0
-20 -3 -36 -6 -36 -3 0 -22 14 -43 31 -41 33 -143 69 -194 69 -18 0 -49 -5
-71 -11 -21 -6 -47 -12 -57 -14 -33 -7 -123 -81 -221 -184 -54 -56 -98 -107
-98 -113 0 -6 17 -34 38 -62 48 -64 58 -82 66 -127 4 -23 21 -51 47 -78 45
-46 66 -49 28 -4 -26 31 -54 91 -63 135 -4 15 -26 52 -50 81 l-44 54 117 120
c147 150 180 168 306 168 99 0 149 -17 214 -75 l34 -30 -6 -108 c-3 -59 -15
-141 -26 -182 -19 -77 -86 -259 -99 -272 -4 -4 -25 -10 -47 -13 -36 -6 -53 1
-182 73 -78 44 -144 77 -147 75 -2 -3 13 -37 34 -76 48 -89 79 -162 55 -133
-8 11 -15 14 -15 7 0 -9 -9 -7 -29 5 -17 10 -27 22 -24 27 4 6 1 7 -6 3 -8 -5
-31 11 -62 43 -27 28 -57 51 -67 51 -9 0 -32 -20 -49 -44 -90 -118 -89 -118
-162 -30 -35 41 -67 74 -71 72 -5 -2 -29 -22 -53 -45 -48 -45 -139 -103 -161
-103 -8 0 -19 -6 -26 -14 -6 -8 -26 -17 -43 -19 -18 -3 -9 -3 19 -2 66 4 142
43 212 108 l54 52 21 -30 c12 -17 43 -53 70 -82 l49 -52 58 65 c33 36 62 74
65 84 9 28 15 26 60 -22 41 -43 124 -100 161 -112 15 -4 37 -41 75 -123 30
-63 55 -119 57 -123 5 -12 -133 -66 -233 -92 -76 -19 -114 -22 -250 -22 -141
1 -172 4 -259 27 -55 15 -142 48 -195 73 l-95 45 94 55 c52 31 116 68 142 82
27 15 46 32 45 37 -2 6 -36 11 -76 13 -49 2 -71 -1 -66 -8 3 -5 19 -10 34 -10
15 0 31 -3 34 -7 4 -3 -52 -42 -125 -85 -143 -85 -156 -94 -118 -83 14 4 22 4
18 0 -4 -4 32 -27 80 -51 48 -24 93 -48 100 -54 6 -6 12 -9 12 -6 0 2 24 -2
53 -10 133 -36 206 -45 327 -44 69 0 132 2 140 4 8 1 38 6 65 10 77 12 219 61
272 94 19 12 23 11 33 -8 6 -11 9 -28 6 -38 -3 -9 -1 -24 4 -32 9 -13 10 -13
10 0 1 8 10 -2 21 -23 12 -23 18 -47 14 -60 -4 -14 -3 -18 3 -9 6 9 15 0 32
-33 23 -44 24 -45 69 -43 l46 1 -43 4 c-42 4 -43 5 -81 81 -21 42 -59 126 -85
185 -26 60 -85 186 -131 280 -47 94 -83 173 -81 174 2 2 26 -10 54 -26 67 -40
258 -141 266 -141 3 0 21 30 40 67 99 199 152 450 127 604 -31 187 -101 312
-241 433 l-45 38 95 -50 c323 -168 514 -412 574 -732 32 -165 14 -420 -40
-583 -9 -26 -14 -50 -13 -51 10 -8 236 -133 250 -138 9 -4 16 -1 16 8 0 7 -4
11 -9 8 -12 -8 -178 88 -171 99 3 6 1 7 -5 3 -16 -10 -62 15 -62 34 0 9 7 39
15 66 23 74 45 208 52 314 9 152 -29 339 -100 490 -22 47 -43 87 -47 90 -3 3
-9 12 -12 20 -8 18 -148 196 -148 187 0 -3 -13 6 -29 21 -15 15 -26 30 -24 35
3 4 -1 6 -9 5 -7 -2 -12 2 -11 9 2 8 -4 10 -15 6 -15 -6 -15 -5 -3 10 7 9 18
17 24 17 14 0 33 26 68 94 42 81 59 130 49 146 -9 14 -94 7 -190 -16 -116 -28
-173 -35 -252 -31 -48 3 -93 8 -100 13 -9 4 -10 4 -3 -3 15 -16 98 -33 158
-33 49 0 348 53 368 66 16 9 9 -9 -39 -106 -26 -53 -59 -103 -74 -113 l-26
-19 -89 54 c-94 57 -159 88 -288 133 -43 16 -73 31 -66 33 7 2 1 10 -16 19
-44 24 -76 31 -100 22 -18 -6 -28 2 -67 56 -26 34 -54 72 -64 83 -9 11 -42 54
-72 96 -46 63 -80 98 -80 81z m334 -340 c21 -4 33 -12 30 -19 -3 -7 21 -23 54
-39 150 -69 264 -174 344 -318 l25 -47 -56 26 c-44 20 -73 25 -136 26 -177 2
-244 -33 -423 -219 l-113 -117 -67 72 c-37 40 -68 76 -70 81 -2 4 68 106 155
226 236 323 225 306 205 328 -16 17 -16 17 0 12 9 -3 32 -9 52 -12z m-554
-381 l0 -55 -27 15 c-151 84 -357 64 -490 -48 l-30 -25 5 25 c5 29 45 52 147
85 87 28 251 57 333 58 l62 1 0 -56z m-136 -128 c26 -8 67 -31 91 -51 45 -36
45 -37 45 -101 0 -35 3 -64 8 -64 4 0 17 16 30 35 l22 35 64 -68 65 -67 -24
-25 c-44 -48 -75 -103 -75 -135 0 -36 -46 -111 -92 -150 -17 -15 -54 -38 -82
-53 -45 -24 -62 -27 -146 -27 -85 0 -101 3 -149 28 -72 38 -138 109 -174 185
-27 58 -29 70 -23 133 13 145 118 287 239 325 56 17 143 17 201 0z m1039 -703
c-6 -15 -43 -18 -43 -3 0 5 7 6 17 3 10 -4 14 -2 10 4 -3 5 0 10 7 10 8 0 12
-6 9 -14z"/>
<path d="M883 1585 c-99 -60 -115 -185 -24 -185 27 0 61 26 61 47 0 15 34 43
52 43 19 0 48 -32 48 -52 0 -28 35 -60 65 -60 42 0 68 36 60 82 -23 123 -158
187 -262 125z m175 -35 c66 -48 81 -141 24 -145 -16 -1 -25 9 -37 40 -16 44
-46 65 -90 65 -14 0 -25 -4 -25 -10 0 -5 -7 -10 -15 -10 -8 0 -15 -3 -14 -7 3
-23 -16 -52 -37 -56 -30 -5 -34 -1 -34 41 0 29 8 42 43 73 37 34 48 39 93 39
41 0 59 -6 92 -30z"/>
<path d="M1167 2542 c-32 -8 -56 -16 -54 -18 7 -7 117 19 117 27 0 5 -1 8 -2
8 -2 -1 -29 -8 -61 -17z"/>
<path d="M1018 2502 c-32 -9 -58 -19 -58 -23 0 -6 130 28 139 37 8 8 -24 2
-81 -14z"/>
<path d="M841 2423 c-46 -24 -109 -63 -138 -85 -58 -42 -89 -53 -108 -38 -19
15 -49 -12 -41 -37 12 -38 37 -36 80 5 62 58 109 90 220 148 56 30 94 53 86
53 -8 0 -53 -21 -99 -46z m-242 -160 c-10 -11 -14 -11 -20 -1 -14 21 -10 26
11 21 16 -4 18 -8 9 -20z"/>
<path d="M530 2183 c-24 -26 -40 -40 -37 -30 4 11 3 16 -3 12 -6 -4 -9 -14 -8
-23 2 -10 -3 -16 -10 -14 -8 1 -11 -2 -7 -8 4 -6 2 -17 -4 -24 -6 -7 -33 -55
-60 -107 -28 -52 -54 -93 -58 -91 -4 2 -9 -2 -11 -10 -2 -9 0 -8 8 2 9 12 10
7 5 -20 -5 -29 -2 -26 18 20 55 127 140 261 200 313 11 9 18 20 15 22 -3 3
-25 -16 -48 -42z"/>
<path d="M356 1955 c-9 -26 -7 -32 5 -12 6 10 9 21 6 23 -2 3 -7 -2 -11 -11z"/>
<path d="M321 1854 c0 -11 3 -14 6 -6 3 7 2 16 -1 19 -3 4 -6 -2 -5 -13z"/>
<path d="M326 1819 c-11 -36 -26 -110 -25 -126 0 -10 9 16 19 57 10 41 17 77
14 79 -2 2 -5 -2 -8 -10z"/>
<path d="M302 1800 c0 -14 2 -19 5 -12 2 6 2 18 0 25 -3 6 -5 1 -5 -13z"/>
<path d="M281 1714 c0 -11 3 -14 6 -6 3 7 2 16 -1 19 -3 4 -6 -2 -5 -13z"/>
<path d="M272 1670 c0 -14 2 -19 5 -12 2 6 2 18 0 25 -3 6 -5 1 -5 -13z"/>
<path d="M292 1640 c0 -19 2 -27 5 -17 2 9 2 25 0 35 -3 9 -5 1 -5 -18z"/>
<path d="M1955 1593 c-61 -32 -87 -67 -99 -134 -5 -27 -2 -42 12 -59 34 -42
112 -18 112 35 0 25 29 55 52 55 16 0 48 -31 48 -47 0 -20 37 -43 69 -43 39 0
57 32 47 83 -18 98 -150 158 -241 110z m137 -26 c7 -7 21 -16 30 -20 20 -7 58
-64 58 -87 0 -47 -57 -44 -81 3 -9 18 -27 36 -41 41 -37 13 -87 -9 -95 -43
-13 -56 -49 -76 -71 -41 -19 31 1 92 43 129 31 26 44 31 90 31 31 0 59 -6 67
-13z"/>
<path d="M263 1565 c0 -22 2 -30 4 -17 2 12 2 30 0 40 -3 9 -5 -1 -4 -23z"/>
<path d="M284 1460 c0 -74 1 -105 3 -67 2 37 2 97 0 135 -2 37 -3 6 -3 -68z"/>
<path d="M356 1475 c-3 -9 -6 -22 -5 -28 0 -7 5 -1 10 12 5 13 8 26 5 28 -2 2
-6 -3 -10 -12z"/>
<path d="M341 1414 c0 -11 3 -14 6 -6 3 7 2 16 -1 19 -3 4 -6 -2 -5 -13z"/>
<path d="M1463 1407 c-56 -62 -64 -97 -39 -158 17 -41 60 -89 79 -89 16 0 57
41 57 58 0 7 4 12 9 12 5 0 11 18 15 40 7 46 -10 96 -45 131 -31 31 -52 33
-76 6z m62 -24 c24 -28 41 -76 36 -103 -4 -19 -54 -100 -63 -100 -10 0 -55 83
-62 115 -5 25 -1 39 26 73 18 23 34 42 36 42 1 0 14 -12 27 -27z"/>
<path d="M263 1360 c0 -36 2 -50 4 -32 2 17 2 47 0 65 -2 17 -4 3 -4 -33z"/>
<path d="M332 1365 c0 -16 2 -22 5 -12 2 9 2 23 0 30 -3 6 -5 -1 -5 -18z"/>
<path d="M282 1205 c0 -16 2 -22 5 -12 2 9 2 23 0 30 -3 6 -5 -1 -5 -18z"/>
<path d="M291 1144 c0 -12 7 -28 17 -35 15 -12 16 -12 6 1 -7 8 -14 24 -17 35
-4 19 -5 19 -6 -1z"/>
<path d="M331 1134 c0 -11 3 -14 6 -6 3 7 2 16 -1 19 -3 4 -6 -2 -5 -13z"/>
<path d="M672 1080 c-6 -15 -8 -31 -5 -34 4 -3 0 -6 -8 -7 -8 0 -6 -4 6 -9 16
-7 12 -9 -20 -11 -38 -1 -38 -2 15 -10 94 -15 151 -18 145 -9 -3 5 2 10 10 12
9 2 -6 18 -40 43 -79 57 -91 60 -103 25z m38 -10 c0 -4 21 -18 46 -29 25 -12
44 -24 42 -26 -2 -2 -26 -1 -53 3 -45 7 -50 10 -56 39 -5 24 -3 30 7 26 8 -3
14 -9 14 -13z"/>
<path d="M378 1063 c6 -2 18 -2 25 0 6 3 1 5 -13 5 -14 0 -19 -2 -12 -5z"/>
<path d="M370 1035 c-19 -22 -8 -25 13 -3 9 10 13 18 8 18 -5 0 -14 -7 -21
-15z"/>
<path d="M543 1043 c9 -2 23 -2 30 0 6 3 -1 5 -18 5 -16 0 -22 -2 -12 -5z"/>
<path d="M448 1033 c6 -2 18 -2 25 0 6 3 1 5 -13 5 -14 0 -19 -2 -12 -5z"/>
<path d="M336 1013 c-6 -14 -5 -15 5 -6 7 7 10 15 7 18 -3 3 -9 -2 -12 -12z"/>
<path d="M538 1023 c12 -2 30 -2 40 0 9 3 -1 5 -23 4 -22 0 -30 -2 -17 -4z"/>
<path d="M853 1013 c9 -2 23 -2 30 0 6 3 -1 5 -18 5 -16 0 -22 -2 -12 -5z"/>
<path d="M978 1003 c7 -3 16 -2 19 1 4 3 -2 6 -13 5 -11 0 -14 -3 -6 -6z"/>
<path d="M335 959 c-16 -35 -20 -38 -27 -23 -5 13 -6 10 -3 -11 2 -17 -2 -41
-10 -55 -9 -15 -15 -19 -15 -10 -1 16 -29 -28 -29 -45 0 -5 6 1 14 15 30 52
13 -2 -39 -126 -30 -70 -56 -121 -58 -113 -3 7 -4 6 -2 -4 1 -10 -18 -71 -42
-134 -25 -64 -43 -117 -41 -119 2 -2 34 74 71 169 38 94 100 244 137 331 38
88 67 161 65 163 -1 2 -11 -15 -21 -38z"/>
<path d="M993 973 c9 -2 23 -2 30 0 6 3 -1 5 -18 5 -16 0 -22 -2 -12 -5z"/>
<path d="M285 899 c-4 -6 -5 -12 -2 -15 2 -3 7 2 10 11 7 17 1 20 -8 4z"/>
<path d="M226 765 c-9 -26 -7 -32 5 -12 6 10 9 21 6 23 -2 3 -7 -2 -11 -11z"/>
<path d="M191 679 c-12 -29 -20 -54 -18 -56 2 -2 14 20 26 48 12 29 20 54 18
56 -2 2 -14 -20 -26 -48z"/>
<path d="M905 696 c10 -14 19 -26 22 -26 7 0 -17 39 -28 46 -6 3 -3 -5 6 -20z"/>
<path d="M960 621 c5 -11 15 -23 21 -27 6 -3 3 5 -6 20 -20 30 -30 35 -15 7z"/>
<path d="M1002 600 c7 -11 17 -20 22 -20 5 0 1 9 -9 20 -10 11 -20 20 -22 20
-2 0 2 -9 9 -20z"/>
<path d="M2888 593 c7 -3 16 -2 19 1 4 3 -2 6 -13 5 -11 0 -14 -3 -6 -6z"/>
<path d="M2745 574 c-49 -7 -110 -18 -135 -23 l-45 -10 50 4 c89 9 235 32 242
38 8 8 1 8 -112 -9z"/>
<path d="M2878 573 c6 -2 18 -2 25 0 6 3 1 5 -13 5 -14 0 -19 -2 -12 -5z"/>
<path d="M127 523 c-9 -25 -16 -48 -14 -50 2 -2 12 17 22 42 9 26 15 48 13 50
-2 2 -12 -17 -21 -42z"/>
<path d="M1030 567 c0 -1 35 -36 78 -77 l77 -75 -75 78 c-69 71 -80 82 -80 74z"/>
<path d="M1030 535 c13 -14 26 -25 28 -25 3 0 -5 11 -18 25 -13 14 -26 25 -28
25 -3 0 5 -11 18 -25z"/>
<path d="M2513 533 c9 -2 25 -2 35 0 9 3 1 5 -18 5 -19 0 -27 -2 -17 -5z"/>
<path d="M2350 515 c-121 -18 -145 -24 -70 -18 80 6 226 30 185 30 -16 0 -68
-5 -115 -12z"/>
<path d="M2533 513 c9 -2 23 -2 30 0 6 3 -1 5 -18 5 -16 0 -22 -2 -12 -5z"/>
<path d="M2458 503 c7 -3 16 -2 19 1 4 3 -2 6 -13 5 -11 0 -14 -3 -6 -6z"/>
<path d="M2398 493 c6 -2 18 -2 25 0 6 3 1 5 -13 5 -14 0 -19 -2 -12 -5z"/>
<path d="M2308 483 c7 -3 16 -2 19 1 4 3 -2 6 -13 5 -11 0 -14 -3 -6 -6z"/>
<path d="M235 404 c-137 -80 -197 -123 -83 -61 70 39 83 44 72 26 -4 -8 0 -8
15 0 24 13 28 23 6 15 -36 -14 -10 7 54 44 64 37 71 39 91 25 12 -8 19 -21 16
-29 -3 -8 0 -13 7 -11 7 1 11 -4 10 -10 -2 -7 1 -12 5 -10 9 2 72 -48 72 -58
0 -3 -4 -3 -10 0 -5 3 -10 4 -10 0 0 -7 67 -67 89 -79 9 -5 -3 8 -27 29 -66
57 -42 53 32 -6 36 -29 63 -55 61 -58 -3 -2 -11 1 -17 7 -7 7 -17 12 -22 12
-11 0 9 -15 59 -45 l30 -17 -25 21 c-38 32 -14 25 50 -14 59 -36 130 -69 130
-61 0 3 -20 14 -45 25 -107 47 -239 146 -354 265 -36 36 -67 66 -70 65 -3 0
-64 -34 -136 -75z"/>
<path d="M2248 473 c6 -2 18 -2 25 0 6 3 1 5 -13 5 -14 0 -19 -2 -12 -5z"/>
<path d="M2173 463 c9 -2 23 -2 30 0 6 3 -1 5 -18 5 -16 0 -22 -2 -12 -5z"/>
<path d="M87 418 c-9 -23 -15 -43 -13 -45 2 -2 11 15 20 38 9 23 15 43 13 45
-2 2 -11 -15 -20 -38z"/>
<path d="M1110 456 c0 -2 8 -10 18 -17 15 -13 16 -12 3 4 -13 16 -21 21 -21
13z"/>
<path d="M360 446 c0 -2 7 -7 16 -10 8 -3 12 -2 9 4 -6 10 -25 14 -25 6z"/>
<path d="M330 430 c-9 -6 -10 -10 -3 -10 6 0 15 5 18 10 8 12 4 12 -15 0z"/>
<path d="M1200 406 c0 -2 8 -10 18 -17 15 -13 16 -12 3 4 -13 16 -21 21 -21
13z"/>
<path d="M50 326 c-6 -20 -9 -40 -5 -46 8 -12 32 -13 39 -1 4 5 -3 7 -14 4
-23 -6 -25 3 -10 43 6 15 9 29 6 31 -2 2 -9 -12 -16 -31z"/>
<path d="M184 344 c-18 -14 -18 -15 4 -4 12 6 22 13 22 15 0 8 -5 6 -26 -11z"/>
<path d="M1270 356 c0 -3 9 -10 20 -16 11 -6 20 -8 20 -6 0 3 -9 10 -20 16
-11 6 -20 8 -20 6z"/>
<path d="M1920 330 c-19 -11 -31 -19 -27 -20 11 0 67 29 67 35 0 7 -1 7 -40
-15z"/>
<path d="M114 304 c-18 -14 -18 -15 4 -4 12 6 22 13 22 15 0 8 -5 6 -26 -11z"/>
<path d="M1944 278 l-19 -23 23 19 c21 18 27 26 19 26 -2 0 -12 -10 -23 -22z"/>
<path d="M1420 280 c8 -5 22 -9 30 -9 10 0 8 3 -5 9 -27 12 -43 12 -25 0z"/>
<path d="M1800 280 c-18 -12 -2 -12 25 0 13 6 15 9 5 9 -8 0 -22 -4 -30 -9z"/>
<path d="M1478 263 c6 -2 18 -2 25 0 6 3 1 5 -13 5 -14 0 -19 -2 -12 -5z"/>
<path d="M1748 263 c6 -2 18 -2 25 0 6 3 1 5 -13 5 -14 0 -19 -2 -12 -5z"/>
<path d="M1598 243 c12 -2 30 -2 40 0 9 3 -1 5 -23 4 -22 0 -30 -2 -17 -4z"/>
<path d="M690 176 c0 -3 9 -10 20 -16 11 -6 20 -8 20 -6 0 3 -9 10 -20 16 -11
6 -20 8 -20 6z"/>
<path d="M754 136 c11 -9 24 -16 30 -16 12 0 7 5 -24 19 -24 11 -24 11 -6 -3z"/>
<path d="M1720 140 c-9 -6 -10 -10 -3 -10 6 0 15 5 18 10 8 12 4 12 -15 0z"/>
<path d="M800 116 c0 -2 7 -7 16 -10 8 -3 12 -2 9 4 -6 10 -25 14 -25 6z"/>
<path d="M1655 110 c-3 -6 1 -7 9 -4 18 7 21 14 7 14 -6 0 -13 -4 -16 -10z"/>
<path d="M848 93 c7 -3 16 -2 19 1 4 3 -2 6 -13 5 -11 0 -14 -3 -6 -6z"/>
<path d="M938 83 c7 -3 16 -2 19 1 4 3 -2 6 -13 5 -11 0 -14 -3 -6 -6z"/>
<path d="M888 73 c6 -2 18 -2 25 0 6 3 1 5 -13 5 -14 0 -19 -2 -12 -5z"/>
<path d="M1568 73 c7 -3 16 -2 19 1 4 3 -2 6 -13 5 -11 0 -14 -3 -6 -6z"/>
<path d="M958 53 c6 -2 18 -2 25 0 6 3 1 5 -13 5 -14 0 -19 -2 -12 -5z"/>
<path d="M1058 53 c6 -2 18 -2 25 0 6 3 1 5 -13 5 -14 0 -19 -2 -12 -5z"/>
<path d="M1458 43 c7 -3 16 -2 19 1 4 3 -2 6 -13 5 -11 0 -14 -3 -6 -6z"/>
<path d="M1043 33 c9 -2 23 -2 30 0 6 3 -1 5 -18 5 -16 0 -22 -2 -12 -5z"/>
<path d="M1408 33 c6 -2 18 -2 25 0 6 3 1 5 -13 5 -14 0 -19 -2 -12 -5z"/>
<path d="M1358 23 c7 -3 16 -2 19 1 4 3 -2 6 -13 5 -11 0 -14 -3 -6 -6z"/>
</g>
</svg>
